<?xml version="1.0" standalone="no"?>
<!DOCTYPE svg PUBLIC "-//W3C//DTD SVG 20010904//EN"
 "http://www.w3.org/TR/2001/REC-SVG-20010904/DTD/svg10.dtd">
<svg version="1.0" xmlns="http://www.w3.org/2000/svg"
 width="16.000000pt" height="16.000000pt" viewBox="0 0 16.000000 16.000000"
 preserveAspectRatio="xMidYMid meet">
<metadata>
Created by potrace 1.11, written by Peter Selinger 2001-2013
</metadata>
<g transform="translate(0.000000,16.000000) scale(0.001461,-0.001461)"
fill="#000000" stroke="none">
<path d="M7900 10877 c-19 -34 -51 -91 -71 -127 -20 -36 -87 -155 -149 -265
-62 -110 -127 -225 -143 -255 -16 -30 -36 -62 -43 -71 -8 -8 -14 -19 -14 -23
0 -4 -57 -107 -126 -229 -70 -122 -140 -247 -156 -277 -17 -30 -48 -86 -70
-125 -22 -38 -51 -89 -64 -112 -13 -24 -36 -64 -51 -90 -14 -27 -45 -82 -68
-123 -23 -41 -51 -91 -62 -110 -58 -102 -284 -501 -305 -540 -14 -25 -67 -119
-118 -210 -51 -91 -104 -185 -118 -210 -14 -25 -47 -83 -74 -129 -26 -46 -48
-85 -48 -86 0 -2 -63 -114 -141 -251 l-141 -249 26 -50 c14 -27 33 -61 40 -75
32 -55 104 -184 336 -600 235 -423 265 -476 307 -550 11 -19 35 -62 53 -95 18
-33 61 -109 95 -170 85 -152 112 -200 153 -275 19 -36 46 -82 59 -102 12 -21
23 -40 23 -42 0 -2 17 -35 39 -73 21 -37 49 -88 63 -113 14 -25 34 -61 45 -80
11 -19 76 -136 145 -260 69 -124 167 -299 218 -390 156 -278 200 -357 265
-475 12 -22 36 -66 54 -97 37 -65 36 -74 -15 -154 -19 -29 -34 -55 -34 -57 0
-3 -142 -252 -170 -297 -8 -13 -173 -300 -239 -414 -13 -22 -45 -79 -72 -124
-27 -46 -49 -86 -49 -89 0 -2 -13 -24 -30 -48 -16 -24 -30 -45 -30 -48 0 -2
-39 -71 -86 -153 -47 -82 -96 -167 -108 -189 -13 -22 -56 -96 -96 -165 -40
-69 -84 -145 -98 -170 -25 -44 -55 -96 -79 -135 -7 -11 -24 -42 -39 -70 -14
-27 -30 -54 -34 -58 -6 -7 -132 203 -283 476 -55 97 -81 143 -96 169 -41 69
-146 254 -150 263 -2 6 -22 38 -43 73 -21 34 -38 64 -38 66 0 2 -23 43 -51 92
-29 49 -63 109 -77 134 -14 25 -70 124 -125 220 -55 96 -111 195 -125 220 -26
47 -111 196 -194 340 -27 47 -113 198 -191 335 l-142 250 -1355 1 c-745 0
-1361 -2 -1367 -4 -9 -3 -7 -12 7 -32 11 -15 20 -33 20 -39 0 -6 4 -11 9 -11
5 0 11 -6 13 -13 2 -7 61 -107 133 -223 l130 -211 693 0 c381 -1 694 -2 696
-4 3 -4 66 -117 136 -244 18 -33 42 -75 52 -92 10 -18 26 -48 36 -65 10 -18
34 -60 52 -93 18 -33 85 -152 148 -265 63 -113 130 -234 150 -270 20 -36 48
-87 64 -113 15 -26 28 -50 28 -52 0 -2 14 -28 31 -57 18 -29 46 -78 62 -108
25 -46 111 -199 382 -685 15 -27 49 -88 75 -135 26 -47 60 -107 75 -135 58
-104 73 -131 92 -165 11 -19 76 -136 145 -260 69 -124 140 -250 157 -280 17
-30 45 -80 61 -110 17 -30 41 -74 54 -96 13 -23 99 -178 191 -344 189 -338
169 -319 225 -213 13 27 36 68 51 93 26 43 171 298 594 1045 244 431 229 404
253 445 11 19 77 136 147 260 70 124 192 338 270 475 78 138 154 273 170 300
15 28 44 79 65 115 31 54 131 229 227 400 31 55 225 397 338 595 56 99 169
297 250 440 82 143 148 265 148 271 0 6 -74 141 -165 300 -91 159 -204 357
-251 439 -46 83 -94 166 -106 185 -11 19 -24 41 -28 49 -7 15 -37 69 -193 341
-46 80 -92 161 -103 180 -10 19 -102 179 -202 355 -100 176 -195 343 -211 370
-15 28 -79 140 -142 250 -63 110 -125 218 -137 240 -12 22 -95 168 -185 325
-90 157 -177 310 -193 340 -17 30 -41 72 -54 93 l-23 37 25 48 c14 26 39 70
55 97 16 28 34 59 39 70 5 11 40 74 78 140 39 66 81 140 95 165 14 25 83 146
153 270 70 124 152 269 182 322 30 54 58 100 62 102 3 3 57 -84 119 -192 123
-216 130 -228 185 -320 20 -35 37 -65 37 -67 0 -2 48 -85 106 -186 58 -101
116 -201 128 -224 13 -22 67 -116 121 -210 54 -93 107 -186 118 -205 10 -19
79 -138 152 -265 300 -522 455 -793 455 -799 0 -3 -191 -7 -425 -8 l-424 -3
28 -45 c16 -25 70 -112 121 -195 83 -134 169 -273 177 -284 2 -3 1966 -5 2091
-2 l32 1 -28 53 c-15 28 -35 63 -43 77 -14 22 -75 129 -137 240 -15 28 -318
564 -392 695 -9 17 -77 136 -150 265 -73 129 -144 255 -158 280 -14 25 -93
164 -175 310 -83 146 -161 283 -173 305 -12 22 -85 152 -163 289 -77 137 -141
250 -141 252 0 1 -27 48 -60 104 -33 56 -60 103 -60 105 0 2 -13 26 -29 53
-15 26 -39 68 -53 93 -14 24 -54 96 -90 159 -36 63 -78 138 -93 165 -16 28
-92 163 -170 300 -78 138 -144 257 -148 265 -4 8 -18 33 -32 55 -14 22 -28 47
-32 55 -4 8 -16 31 -28 50 -12 19 -35 60 -52 90 -39 71 -163 292 -197 350 -15
25 -29 53 -33 63 -3 9 -8 17 -12 17 -3 0 -22 -28 -41 -63z"/>
<path d="M2599 8733 c-41 -70 -78 -136 -84 -145 -47 -82 -167 -288 -205 -353
-26 -44 -105 -179 -175 -300 -128 -220 -172 -295 -303 -520 -38 -66 -79 -136
-90 -155 -11 -19 -98 -170 -194 -335 -572 -983 -814 -1398 -995 -1710 l-203
-350 1342 -3 c737 -1 1343 0 1346 2 2 3 -39 80 -91 173 -134 237 -137 242
-171 303 -17 31 -46 83 -65 117 l-34 60 -649 -1 c-356 0 -648 2 -648 7 0 4 20
40 43 80 24 39 60 99 79 132 83 142 371 631 441 748 43 71 77 131 77 133 0 2
12 23 27 47 15 23 34 54 43 69 120 209 216 365 221 360 7 -7 73 -126 154 -277
26 -49 69 -128 95 -175 48 -86 85 -153 148 -270 19 -36 69 -128 112 -205 42
-77 96 -176 120 -220 24 -44 54 -100 68 -125 13 -25 40 -74 60 -110 19 -36 42
-78 52 -95 10 -16 37 -66 60 -110 24 -44 80 -147 125 -230 45 -82 99 -181 120
-220 20 -38 53 -98 72 -133 l35 -62 695 0 695 0 -38 67 c-21 38 -45 82 -54 98
-22 39 -151 270 -177 315 -11 19 -35 62 -53 95 -18 33 -49 89 -70 125 -40 70
-80 141 -115 205 -11 22 -51 92 -87 155 -35 63 -76 135 -90 160 -14 25 -98
176 -188 335 -193 343 -188 334 -230 410 -18 33 -42 76 -53 95 -70 122 -177
314 -177 316 0 2 -20 38 -45 80 -25 41 -45 77 -45 80 0 2 -20 38 -45 80 -25
41 -45 77 -45 79 0 2 -13 26 -28 52 -16 26 -63 109 -104 183 -42 74 -86 153
-98 175 -18 32 -233 415 -323 575 -11 19 -53 96 -94 170 -42 74 -79 139 -83
143 -4 4 -40 -50 -81 -120z"/>
<path d="M4240 8278 c-168 -293 -313 -549 -323 -569 l-18 -37 97 -178 c53 -98
100 -187 105 -198 5 -12 20 -39 32 -61 30 -52 105 -193 175 -325 30 -58 60
-114 67 -125 7 -11 36 -65 65 -120 29 -55 79 -147 110 -205 31 -58 81 -150
110 -205 29 -55 60 -113 70 -130 9 -16 43 -79 75 -140 32 -60 68 -128 80 -150
12 -22 46 -84 74 -137 28 -54 62 -117 75 -140 31 -57 108 -202 226 -423 30
-55 73 -135 97 -179 24 -43 43 -82 43 -87 0 -5 305 -9 701 -9 l701 0 -20 33
c-19 31 -248 434 -300 527 -14 25 -87 153 -162 285 -75 132 -152 267 -170 300
-18 33 -56 101 -85 150 -47 82 -122 214 -174 308 -12 20 -31 54 -43 75 -12 20
-49 87 -83 147 -69 121 -386 679 -417 735 -25 42 -96 168 -130 230 -14 25 -54
95 -88 155 -86 151 -99 173 -128 225 -23 41 -363 640 -419 738 -13 23 -27 42
-31 42 -5 0 -145 -240 -312 -532z"/>
</g>
</svg>
